<svg width="21" height="21" xmlns="http://www.w3.org/2000/svg" xmlns:xlink="http://www.w3.org/1999/xlink" xml:space="preserve" overflow="hidden"><defs><clipPath id="clip0"><rect x="0" y="0" width="21" height="21"/></clipPath></defs><g clip-path="url(#clip0)"><path d="M8.575 6.3875C8.75 6.2125 8.85938 5.97187 8.85938 5.70937 8.85938 5.44688 8.75 5.20625 8.575 5.03125L5.55625 2.03437C5.38125 1.85938 5.14062 1.75 4.9 1.75 4.65937 1.75 4.39687 1.85938 4.22187 2.03437L3.89375 2.3625 8.24687 6.71563 8.575 6.3875Z" fill="#00B0F0"/><path d="M12.9719 14.1094C12.8844 14.1969 12.7531 14.2406 12.6438 14.2406 12.5344 14.2406 12.4031 14.1969 12.3156 14.1094L6.89062 8.70625C6.80312 8.61875 6.75938 8.4875 6.75938 8.37813 6.75938 8.26875 6.80312 8.1375 6.89062 8.05L7.56875 7.39375 3.21563 3.04062C2.93125 3.325 2.66875 3.5875 2.49375 3.7625 2.05625 4.17812 1.79375 4.725 1.77188 5.31562 1.70625 6.3 1.94687 7.24062 2.275 8.15938 2.625 8.96875 3.08438 9.73438 3.5875 10.4563 5.38125 13.1469 7.63438 15.4875 10.2594 17.3469 10.6969 17.675 11.1562 17.9594 11.6375 18.2219 12.7312 18.7688 13.8906 19.1625 15.1375 19.25 15.9688 19.3156 16.8 18.9875 17.3687 18.375L17.9594 17.7844 13.6281 13.4313 12.9719 14.1094Z" fill="#00B0F0"/><path d="M18.9656 15.4437 15.9469 12.425C15.7719 12.25 15.5312 12.1406 15.2688 12.1406 15.0062 12.1406 14.7656 12.25 14.5906 12.425L14.2625 12.775 18.6156 17.1281 18.9438 16.8C19.1187 16.625 19.2281 16.3844 19.2281 16.1219 19.2281 15.8594 19.1406 15.6188 18.9656 15.4437Z" fill="#00B0F0"/></g></svg>